<svg id="Ebene_1" data-name="Ebene 1" xmlns="http://www.w3.org/2000/svg" viewBox="0 0 36 12"><defs><style>.cls-1{fill:red;}.cls-2{fill:#c8c8c8;}</style></defs><title>Contexicon_Icons</title><polygon class="cls-1" points="5.71 9.57 2.18 11.43 2.85 7.5 0 4.72 3.94 4.15 5.71 0.57 7.47 4.15 11.41 4.72 8.56 7.5 9.23 11.43 5.71 9.57"/><polygon class="cls-2" points="18 9.57 14.47 11.43 15.15 7.5 12.29 4.72 16.24 4.15 18 0.57 19.76 4.15 23.71 4.72 20.85 7.5 21.53 11.43 18 9.57"/><polygon class="cls-2" points="30.29 9.57 26.77 11.43 27.44 7.5 24.59 4.72 28.53 4.15 30.29 0.57 32.06 4.15 36 4.72 33.15 7.5 33.82 11.43 30.29 9.57"/></svg>